<svg xmlns="http://www.w3.org/2000/svg" xmlns:xlink="http://www.w3.org/1999/xlink" contentStyleType="text/css" data-diagram-type="CLASS" height="766px" preserveAspectRatio="none" style="width:1641px;height:766px;background:#FFFFFF;" version="1.1" viewBox="0 0 1641 766" width="1641px" zoomAndPan="magnify"><title>Utilities Component - Configuration-as-Factory Pattern</title><defs/><g><g class="title" data-source-line="2"><text fill="#000000" font-family="sans-serif" font-size="14" font-weight="bold" lengthAdjust="spacing" textLength="405.0293" x="611.437" y="23.5352">Utilities Component - Configuration-as-Factory Pattern</text></g><!--class src.spatial_guidance.spatial_guidance.utils.base_config.BaseConfig--><g class="entity" data-entity="src.spatial_guidance.spatial_guidance.utils.base_config.BaseConfig" data-source-line="4" data-uid="ent0002" id="entity_src.spatial_guidance.spatial_guidance.utils.base_config.BaseConfig"><rect fill="#F1F1F1" height="146.9297" rx="2.5" ry="2.5" style="stroke:#181818;stroke-width:0.5;" width="458.7148" x="955.03" y="612.3183"/><ellipse cx="1142.3279" cy="628.3183" fill="#ADD1B2" rx="11" ry="11" style="stroke:#181818;stroke-width:1;"/><path d="M1144.801,634.4613 Q1144.2199,634.7602 1143.5808,634.9096 Q1142.9416,635.059 1142.2361,635.059 Q1139.7292,635.059 1138.4094,633.4071 Q1137.0896,631.7553 1137.0896,628.6342 Q1137.0896,625.5048 1138.4094,623.8529 Q1139.7292,622.2011 1142.2361,622.2011 Q1142.9416,622.2011 1143.5891,622.3505 Q1144.2365,622.4999 1144.801,622.7987 L1144.801,625.5214 Q1144.1701,624.9404 1143.5766,624.6706 Q1142.9831,624.4008 1142.3523,624.4008 Q1141.0075,624.4008 1140.3227,625.4675 Q1139.6379,626.5341 1139.6379,628.6342 Q1139.6379,630.726 1140.3227,631.7926 Q1141.0075,632.8593 1142.3523,632.8593 Q1142.9831,632.8593 1143.5766,632.5895 Q1144.1701,632.3197 1144.801,631.7387 Z " fill="#000000"/><text fill="#000000" font-family="sans-serif" font-size="14" lengthAdjust="spacing" textLength="75.6191" x="1162.8279" y="633.6093">BaseConfig</text><line style="stroke:#181818;stroke-width:0.5;" x1="956.03" x2="1412.7448" y1="644.3183" y2="644.3183"/><text fill="#000000" font-family="sans-serif" font-size="14" lengthAdjust="spacing" textLength="91.7109" x="961.03" y="661.8534">model_config</text><text fill="#000000" font-family="sans-serif" font-size="14" lengthAdjust="spacing" textLength="291.0811" x="961.03" y="678.3417">propagated_fields : Optional[Dict[str, Any]]</text><text fill="#000000" font-family="sans-serif" font-size="14" lengthAdjust="spacing" textLength="240.707" x="961.03" y="694.83">protected_fields : Optional[List[str]]</text><text fill="#000000" font-family="sans-serif" font-size="14" lengthAdjust="spacing" textLength="446.7148" x="961.03" y="711.3183">target : Optional[Callable[['BaseConfig[TargetType]'], TargetType]]</text><line style="stroke:#181818;stroke-width:0.5;" x1="956.03" x2="1412.7448" y1="718.2714" y2="718.2714"/><text fill="#000000" font-family="sans-serif" font-size="14" lengthAdjust="spacing" textLength="234.3633" x="961.03" y="735.8066">inspect(show_docs: bool) -&gt; None</text><text fill="#000000" font-family="sans-serif" font-size="14" lengthAdjust="spacing" textLength="199.1855" x="961.03" y="752.2948">setup_target() -&gt; TargetType</text></g><!--class src.spatial_guidance.spatial_guidance.utils.base_config.SingletonConfig--><g class="entity" data-entity="src.spatial_guidance.spatial_guidance.utils.base_config.SingletonConfig" data-source-line="13" data-uid="ent0003" id="entity_src.spatial_guidance.spatial_guidance.utils.base_config.SingletonConfig"><rect fill="#F1F1F1" height="64.4883" rx="2.5" ry="2.5" style="stroke:#181818;stroke-width:0.5;" width="140.2744" x="845.25" y="476.7983"/><ellipse cx="860.25" cy="492.7983" fill="#ADD1B2" rx="11" ry="11" style="stroke:#181818;stroke-width:1;"/><path d="M862.7231,498.9413 Q862.1421,499.2402 861.5029,499.3896 Q860.8638,499.539 860.1582,499.539 Q857.6514,499.539 856.3315,497.8871 Q855.0117,496.2353 855.0117,493.1142 Q855.0117,489.9848 856.3315,488.3329 Q857.6514,486.6811 860.1582,486.6811 Q860.8638,486.6811 861.5112,486.8305 Q862.1587,486.9799 862.7231,487.2788 L862.7231,490.0014 Q862.0923,489.4204 861.4988,489.1506 Q860.9053,488.8808 860.2744,488.8808 Q858.9297,488.8808 858.2449,489.9475 Q857.5601,491.0141 857.5601,493.1142 Q857.5601,495.206 858.2449,496.2726 Q858.9297,497.3393 860.2744,497.3393 Q860.9053,497.3393 861.4988,497.0695 Q862.0923,496.7997 862.7231,496.2187 Z " fill="#000000"/><text fill="#000000" font-family="sans-serif" font-size="14" lengthAdjust="spacing" textLength="108.2744" x="874.25" y="498.0893">SingletonConfig</text><line style="stroke:#181818;stroke-width:0.5;" x1="846.25" x2="984.5244" y1="508.7983" y2="508.7983"/><text fill="#000000" font-family="sans-serif" font-size="14" lengthAdjust="spacing" textLength="91.7109" x="851.25" y="526.3334">model_config</text><line style="stroke:#181818;stroke-width:0.5;" x1="846.25" x2="984.5244" y1="533.2866" y2="533.2866"/></g><!--class src.spatial_guidance.spatial_guidance.utils.base_config.NoTarget--><g class="entity" data-entity="src.spatial_guidance.spatial_guidance.utils.base_config.NoTarget" data-source-line="17" data-uid="ent0004" id="entity_src.spatial_guidance.spatial_guidance.utils.base_config.NoTarget"><rect fill="#F1F1F1" height="64.4883" rx="2.5" ry="2.5" style="stroke:#181818;stroke-width:0.5;" width="303.0332" x="1331.87" y="192.8783"/><ellipse cx="1447.6263" cy="208.8783" fill="#ADD1B2" rx="11" ry="11" style="stroke:#181818;stroke-width:1;"/><path d="M1450.0995,215.0213 Q1449.5184,215.3202 1448.8793,215.4696 Q1448.2401,215.619 1447.5346,215.619 Q1445.0277,215.619 1443.7079,213.9671 Q1442.3881,212.3153 1442.3881,209.1942 Q1442.3881,206.0648 1443.7079,204.4129 Q1445.0277,202.7611 1447.5346,202.7611 Q1448.2401,202.7611 1448.8876,202.9105 Q1449.535,203.0599 1450.0995,203.3588 L1450.0995,206.0814 Q1449.4686,205.5004 1448.8751,205.2306 Q1448.2816,204.9608 1447.6508,204.9608 Q1446.306,204.9608 1445.6212,206.0275 Q1444.9364,207.0941 1444.9364,209.1942 Q1444.9364,211.286 1445.6212,212.3526 Q1446.306,213.4193 1447.6508,213.4193 Q1448.2816,213.4193 1448.8751,213.1495 Q1449.4686,212.8797 1450.0995,212.2987 Z " fill="#000000"/><text fill="#000000" font-family="sans-serif" font-size="14" lengthAdjust="spacing" textLength="63.0205" x="1468.1263" y="214.1693">NoTarget</text><line style="stroke:#181818;stroke-width:0.5;" x1="1332.87" x2="1633.9032" y1="224.8783" y2="224.8783"/><line style="stroke:#181818;stroke-width:0.5;" x1="1332.87" x2="1633.9032" y1="232.8783" y2="232.8783"/><text fill="#000000" font-family="sans-serif" font-size="14" lengthAdjust="spacing" textLength="291.0332" x="1337.87" y="250.4134">setup_target(config: 'BaseConfig') -&gt; None</text></g><!--class src.spatial_guidance.spatial_guidance.utils.console.Console--><g class="entity" data-entity="src.spatial_guidance.spatial_guidance.utils.console.Console" data-source-line="21" data-uid="ent0005" id="entity_src.spatial_guidance.spatial_guidance.utils.console.Console"><rect fill="#F1F1F1" height="361.2773" rx="2.5" ry="2.5" style="stroke:#181818;stroke-width:0.5;" width="424.7813" x="7" y="44.4883"/><ellipse cx="187.8618" cy="60.4883" fill="#ADD1B2" rx="11" ry="11" style="stroke:#181818;stroke-width:1;"/><path d="M190.335,66.6313 Q189.7539,66.9302 189.1147,67.0796 Q188.4756,67.229 187.77,67.229 Q185.2632,67.229 183.9434,65.5771 Q182.6235,63.9253 182.6235,60.8042 Q182.6235,57.6748 183.9434,56.0229 Q185.2632,54.3711 187.77,54.3711 Q188.4756,54.3711 189.123,54.5205 Q189.7705,54.6699 190.335,54.9688 L190.335,57.6914 Q189.7041,57.1104 189.1106,56.8406 Q188.5171,56.5708 187.8862,56.5708 Q186.5415,56.5708 185.8567,57.6375 Q185.1719,58.7041 185.1719,60.8042 Q185.1719,62.896 185.8567,63.9626 Q186.5415,65.0293 187.8862,65.0293 Q188.5171,65.0293 189.1106,64.7595 Q189.7041,64.4897 190.335,63.9087 Z " fill="#000000"/><text fill="#000000" font-family="sans-serif" font-size="14" lengthAdjust="spacing" textLength="54.5576" x="208.3618" y="65.7793">Console</text><line style="stroke:#181818;stroke-width:0.5;" x1="8" x2="430.7813" y1="76.4883" y2="76.4883"/><text fill="#000000" font-family="sans-serif" font-size="14" lengthAdjust="spacing" textLength="139.2275" x="13" y="94.0234">default_sttings : dict</text><text fill="#000000" font-family="sans-serif" font-size="14" lengthAdjust="spacing" textLength="104.3711" x="13" y="110.5117">is_debug : bool</text><text fill="#000000" font-family="sans-serif" font-size="14" lengthAdjust="spacing" textLength="71.3057" x="13" y="127">is_verbose</text><text fill="#000000" font-family="sans-serif" font-size="14" lengthAdjust="spacing" textLength="138.6533" x="13" y="143.4883">prefix : Optional[str]</text><text fill="#000000" font-family="sans-serif" font-size="14" lengthAdjust="spacing" textLength="164.835" x="13" y="159.9766">show_timestamps : bool</text><text fill="#000000" font-family="sans-serif" font-size="14" lengthAdjust="spacing" textLength="96.4688" x="13" y="176.4648">verbose : bool</text><line style="stroke:#181818;stroke-width:0.5;" x1="8" x2="430.7813" y1="183.418" y2="183.418"/><text fill="#000000" font-family="sans-serif" font-size="14" lengthAdjust="spacing" textLength="185.3428" x="13" y="200.9531">dbg(message: str) -&gt; None</text><text fill="#000000" font-family="sans-serif" font-size="14" lengthAdjust="spacing" textLength="410.7031" x="13" y="217.4414">error(exception: Exception, message: Optional[str]) -&gt; None</text><text fill="#000000" font-family="sans-serif" font-size="14" lengthAdjust="spacing" textLength="180.3662" x="13" y="233.9297">log(message: str) -&gt; None</text><text fill="#000000" font-family="sans-serif" font-size="14" lengthAdjust="spacing" textLength="288.333" x="13" y="250.418">plog(obj: Any, title: Optional[str]) -&gt; None</text><text fill="#000000" font-family="sans-serif" font-size="14" lengthAdjust="spacing" textLength="299.9063" x="13" y="266.9063">print_instructions(instructions: str) -&gt; None</text><text fill="#000000" font-family="sans-serif" font-size="14" lengthAdjust="spacing" textLength="277.9766" x="13" y="283.3945">print_schema(schema_json: str) -&gt; None</text><text fill="#000000" font-family="sans-serif" font-size="14" lengthAdjust="spacing" textLength="268.1191" x="13" y="299.8828">set_debug(is_debug: bool) -&gt; 'Console'</text><text fill="#000000" font-family="sans-serif" font-size="14" lengthAdjust="spacing" textLength="165.457" x="13" y="316.3711">set_prefix() -&gt; 'Console'</text><text fill="#000000" font-family="sans-serif" font-size="14" lengthAdjust="spacing" textLength="412.7813" x="13" y="332.8594">set_timestamp_display(show_timestamps: bool) -&gt; 'Console'</text><text fill="#000000" font-family="sans-serif" font-size="14" lengthAdjust="spacing" textLength="270.498" x="13" y="349.3477">set_verbose(verbose: bool) -&gt; 'Console'</text><text fill="#000000" font-family="sans-serif" font-size="14" lengthAdjust="spacing" textLength="182.834" x="13" y="365.8359">unset_prefix() -&gt; 'Console'</text><text fill="#000000" font-family="sans-serif" font-size="14" lengthAdjust="spacing" textLength="191.9258" x="13" y="382.3242">warn(message: str) -&gt; None</text><text fill="#000000" font-family="sans-serif" font-size="14" lengthAdjust="spacing" textLength="174.043" x="13" y="398.8125">with_prefix() -&gt; 'Console'</text></g><!--class src.spatial_guidance.spatial_guidance.utils.configs.PathConfig--><g class="entity" data-entity="src.spatial_guidance.spatial_guidance.utils.configs.PathConfig" data-source-line="43" data-uid="ent0006" id="entity_src.spatial_guidance.spatial_guidance.utils.configs.PathConfig"><rect fill="#F1F1F1" height="130.4414" rx="2.5" ry="2.5" style="stroke:#181818;stroke-width:0.5;" width="541.8193" x="755.48" y="159.9083"/><ellipse cx="984.9932" cy="175.9083" fill="#ADD1B2" rx="11" ry="11" style="stroke:#181818;stroke-width:1;"/><path d="M987.4663,182.0513 Q986.8853,182.3502 986.2461,182.4996 Q985.607,182.649 984.9014,182.649 Q982.3946,182.649 981.0747,180.9971 Q979.7549,179.3453 979.7549,176.2242 Q979.7549,173.0948 981.0747,171.4429 Q982.3946,169.7911 984.9014,169.7911 Q985.607,169.7911 986.2544,169.9405 Q986.9019,170.0899 987.4663,170.3887 L987.4663,173.1114 Q986.8355,172.5304 986.242,172.2606 Q985.6485,171.9908 985.0176,171.9908 Q983.6729,171.9908 982.9881,173.0575 Q982.3032,174.1241 982.3032,176.2242 Q982.3032,178.316 982.9881,179.3826 Q983.6729,180.4493 985.0176,180.4493 Q985.6485,180.4493 986.242,180.1795 Q986.8355,179.9097 987.4663,179.3287 Z " fill="#000000"/><text fill="#000000" font-family="sans-serif" font-size="14" lengthAdjust="spacing" textLength="74.293" x="1005.4932" y="181.1993">PathConfig</text><line style="stroke:#181818;stroke-width:0.5;" x1="756.48" x2="1296.2993" y1="191.9083" y2="191.9083"/><text fill="#000000" font-family="sans-serif" font-size="14" lengthAdjust="spacing" textLength="137.9902" x="761.48" y="209.4434">root : Optional[Path]</text><line style="stroke:#181818;stroke-width:0.5;" x1="756.48" x2="1296.2993" y1="216.3966" y2="216.3966"/><text fill="#000000" font-family="sans-serif" font-size="14" lengthAdjust="spacing" textLength="479.3086" x="761.48" y="233.9317">data : Annotated[Path, Field(default='.data/SmartAIs-Recorded-Data')]</text><text fill="#000000" font-family="sans-serif" font-size="14" lengthAdjust="spacing" textLength="317.3584" x="761.48" y="250.42">env_file : Annotated[Path, Field(default='.env')]</text><text fill="#000000" font-family="sans-serif" font-size="14" lengthAdjust="spacing" textLength="391.8154" x="761.48" y="266.9083">convert_to_path(v: str | Path, info: ValidationInfo) -&gt; Path</text><text fill="#000000" font-family="sans-serif" font-size="14" lengthAdjust="spacing" textLength="529.8193" x="761.48" y="283.3966">get_api_key(key_name: Union[Literal['GOOGLE_API_KEY'], str]) -&gt; Optional[str]</text></g><g class="entity" data-entity="GMN9" data-source-line="56" data-uid="ent0010" id="entity_GMN9"><path d="M1289.06,465.7683 L1289.06,552.321 A0,0 0 0 0 1289.06,552.321 L1383.59,552.321 L1296.69,611.8283 L1391.59,552.321 L1617.7309,552.321 A0,0 0 0 0 1617.7309,552.321 L1617.7309,475.7683 L1607.7309,465.7683 L1289.06,465.7683 A0,0 0 0 0 1289.06,465.7683" fill="#FEFFDD" style="stroke:#181818;stroke-width:0.5;"/><path d="M1607.7309,465.7683 L1607.7309,475.7683 L1617.7309,475.7683 L1607.7309,465.7683" fill="#FEFFDD" style="stroke:#181818;stroke-width:0.5;"/><text fill="#000000" font-family="sans-serif" font-size="13" lengthAdjust="spacing" textLength="210.3804" x="1295.06" y="483.3366">Configuration-as-Factory Pattern</text><text fill="#000000" font-family="sans-serif" font-size="13" lengthAdjust="spacing" textLength="258.959" x="1295.06" y="498.6472">- Base class for each component's config</text><text fill="#000000" font-family="sans-serif" font-size="13" lengthAdjust="spacing" textLength="201.5698" x="1295.06" y="513.9577">- Type-safe object instantiation</text><text fill="#000000" font-family="sans-serif" font-size="13" lengthAdjust="spacing" textLength="307.6709" x="1295.06" y="529.2683">- Automatic validation and dependency injection</text><text fill="#000000" font-family="sans-serif" font-size="13" lengthAdjust="spacing" textLength="269.5913" x="1295.06" y="544.5788">- Generic target creation via setup_target()</text></g><g class="entity" data-entity="GMN12" data-source-line="64" data-uid="ent0013" id="entity_GMN12"><path d="M466.75,181.8483 L466.75,221.1283 L431.96,225.1283 L466.75,229.1283 L466.75,268.401 A0,0 0 0 0 466.75,268.401 L720.0361,268.401 A0,0 0 0 0 720.0361,268.401 L720.0361,191.8483 L710.0361,181.8483 L466.75,181.8483 A0,0 0 0 0 466.75,181.8483" fill="#FEFFDD" style="stroke:#181818;stroke-width:0.5;"/><path d="M710.0361,181.8483 L710.0361,191.8483 L720.0361,191.8483 L710.0361,181.8483" fill="#FEFFDD" style="stroke:#181818;stroke-width:0.5;"/><text fill="#000000" font-family="sans-serif" font-size="13" lengthAdjust="spacing" textLength="170.1807" x="472.75" y="199.4166">Structured logging via Rich</text><text fill="#000000" font-family="sans-serif" font-size="13" lengthAdjust="spacing" textLength="155.4033" x="472.75" y="214.7272">- Debug/verbose modes</text><text fill="#000000" font-family="sans-serif" font-size="13" lengthAdjust="spacing" textLength="134.2275" x="472.75" y="230.0377">- Prefix management</text><text fill="#000000" font-family="sans-serif" font-size="13" lengthAdjust="spacing" textLength="130.5713" x="472.75" y="245.3483">- Timestamp display</text><text fill="#000000" font-family="sans-serif" font-size="13" lengthAdjust="spacing" textLength="232.2861" x="472.75" y="260.6588">- Schema and Config pretty-printing</text></g><g class="entity" data-entity="GMN15" data-source-line="72" data-uid="ent0016" id="entity_GMN15"><path d="M1020.4,473.4183 L1020.4,544.6605 A0,0 0 0 0 1020.4,544.6605 L1254.3893,544.6605 A0,0 0 0 0 1254.3893,544.6605 L1254.3893,483.4183 L1244.3893,473.4183 L1127.7,473.4183 L1051.86,290.8083 L1119.7,473.4183 L1020.4,473.4183 A0,0 0 0 0 1020.4,473.4183" fill="#FEFFDD" style="stroke:#181818;stroke-width:0.5;"/><path d="M1244.3893,473.4183 L1244.3893,483.4183 L1254.3893,483.4183 L1244.3893,473.4183" fill="#FEFFDD" style="stroke:#181818;stroke-width:0.5;"/><text fill="#000000" font-family="sans-serif" font-size="13" lengthAdjust="spacing" textLength="212.9893" x="1026.4" y="490.9866">Singleton pattern for global paths</text><text fill="#000000" font-family="sans-serif" font-size="13" lengthAdjust="spacing" textLength="200.9033" x="1026.4" y="506.2972">- Environment file management</text><text fill="#000000" font-family="sans-serif" font-size="13" lengthAdjust="spacing" textLength="125.0679" x="1026.4" y="521.6077">- API key resolution</text><text fill="#000000" font-family="sans-serif" font-size="13" lengthAdjust="spacing" textLength="189.5347" x="1026.4" y="536.9183">- Data directory configuration</text></g><!--link src.spatial_guidance.spatial_guidance.utils.base_config.SingletonConfig to src.spatial_guidance.spatial_guidance.utils.base_config.BaseConfig--><g class="link" data-entity-1="src.spatial_guidance.spatial_guidance.utils.base_config.SingletonConfig" data-entity-2="src.spatial_guidance.spatial_guidance.utils.base_config.BaseConfig" data-source-line="52" data-uid="lnk7" id="link_src.spatial_guidance.spatial_guidance.utils.base_config.SingletonConfig_src.spatial_guidance.spatial_guidance.utils.base_config.BaseConfig"><path codeLine="52" d="M964.1,541.6883 C994.31,561.3083 1019.3241,577.5645 1057.0341,602.0545" fill="none" id="src.spatial_guidance.spatial_guidance.utils.base_config.SingletonConfig-to-src.spatial_guidance.spatial_guidance.utils.base_config.BaseConfig" style="stroke:#181818;stroke-width:1;"/><polygon fill="none" points="1072.13,611.8583,1060.302,597.0226,1053.7662,607.0865,1072.13,611.8583" style="stroke:#181818;stroke-width:1;"/></g><!--link src.spatial_guidance.spatial_guidance.utils.configs.PathConfig to src.spatial_guidance.spatial_guidance.utils.base_config.SingletonConfig--><g class="link" data-entity-1="src.spatial_guidance.spatial_guidance.utils.configs.PathConfig" data-entity-2="src.spatial_guidance.spatial_guidance.utils.base_config.SingletonConfig" data-source-line="53" data-uid="lnk8" id="link_src.spatial_guidance.spatial_guidance.utils.configs.PathConfig_src.spatial_guidance.spatial_guidance.utils.base_config.SingletonConfig"><path codeLine="53" d="M1000.92,290.8083 C978.07,348.8383 952.092,414.8088 934.472,459.5788" fill="none" id="src.spatial_guidance.spatial_guidance.utils.configs.PathConfig-to-src.spatial_guidance.spatial_guidance.utils.base_config.SingletonConfig" style="stroke:#181818;stroke-width:1;"/><polygon fill="none" points="927.88,476.3283,940.0552,461.7762,928.8889,457.3815,927.88,476.3283" style="stroke:#181818;stroke-width:1;"/></g><!--SRC=[hLRRRjiu47tNLmpw8XMmt7S3BP1jqY1eqGHrkq1X109DZIMsD2cGb5EZtN_V6LAs7AT9Byc38PESwvdX6NeCOCGQVISaph4JJWJhm5Y3ML118tmAIgkWqCDhk-vetmGewRzPgQOdQMLDANpvHaXItCAL206ToJAfXVVmx1_XCGa_0-71EpabNq49NJMzgeMHU7UZ9vz-kYJLIaRTwMW6lcS0QrkZ7ivesJdRYKO4hAkLGbrxcC5bnw49lJXLCYnyS1CuCTlhwoGUKFvS-ftoKJeA1k4Q0kZW-BNGMYmrBXRv6DBYOvJxkEtmEh-UmC6IhIZZEt9N-DRULBMLVWPBQ_LpA5_1UmOQm6FekogvA-B1Q2FxRm_cN9b6Ox3c2H0zidKNrj7jUvkYUPI_dP7ew5Q-IM061uZc8pXZ67JahSO_Za8clUcW7mEeSILw7IeV0k707L1Jct2nV5NZicyW5IdjRD0jhSVOEhXItmuxWdk5C-BY1aKtAOXrvqVrGNVSg9TDGM9UD3W3qZxi0tJEkWA_IOpcPt2s-pk1lSujruVQsjvlkUD3k_mourimWNYt7p3LEML2HPqRN2zPnXU7YxlcexoNBQv5aJxL5yyP70bIvHF0nGxfWzkG3oNA1y64Tl7JiptMLQryfyMsE2h10tQ7cXJ3znx9tZmKmurmvbwqRrHexz4S-vceiltBYvokZ9-E9b9NYo20AsniO3PSyFa4tZ3B5KFBlyodBFPYlXOkd5puyWDAwsgiorFQpfzpCwFP43Lg_0rR99fqdBMtc9B5UPz29PYfNhQYNDfY4y627v3iAREoC_XNQCgFDIze7H7ZOr8dWgX4fwglk2teL_6mci4dGwB4rJHgo5L-Vdbv_kwiEhcwgDwUVMOAtlVpxNjAuETmOLfqAZ2Su517jxvLdS-UYalByiUh9nXrsIDRub5X7EMKPTG72C5sO5TFaHly-Wq1zD1W3KWNPaKF4nIofPOQ7YAvX_qRe0GUbgKNAmJYEHguF7YfoXGJEuWY9tsmQrfAsEmx3eIfQHvqQ6eqSajQhBpJE4T3pI9tJm7fC2bjb3YQsXaP00PfWCgffWr_2jRHhA8Gvf5qUuSrytj3LOc-FoZPnW1FcKDVxAOCJt0Vzw_If5eBGmIr9h0IHZjwX84ru-uy4dO4OcWTuguGjcMaTN9vdDlI1WBoBv8xQb7ERzTdqAMonpetsYw5vgqsfNDcDifPmub0fAQZnEZk0_43NMZ2hT-NZpcDKdMOEaiUjjoOrFy0]--></g></svg>